<?xml version="1.0" encoding="UTF-8"?>
<svg width="602px" height="172px" viewBox="0 0 602 172" version="1.1" xmlns="http://www.w3.org/2000/svg" xmlns:xlink="http://www.w3.org/1999/xlink">
    <title>Logo blauw</title>
    <defs>
        <linearGradient x1="0%" y1="49.9849937%" x2="99.9999058%" y2="49.9849937%" id="linearGradient-1">
            <stop stop-color="#FFA9B5" offset="15%"></stop>
            <stop stop-color="#FFD3D9" offset="37%"></stop>
            <stop stop-color="#FFF3F5" offset="57%"></stop>
            <stop stop-color="#FFFFFF" offset="68%"></stop>
        </linearGradient>
    </defs>
    <g id="🦄-Presentatie" stroke="none" stroke-width="1" fill="none" fill-rule="evenodd">
        <g id="1" transform="translate(-164.000000, -724.000000)">
            <g id="Logo-blauw" transform="translate(164.000000, 724.000000)">
                <path d="M142.062115,51.3614578 L142.152894,51.3614578 C134.508034,8.25456376 99.1367785,1.77685811 99.1367785,1.77685811 L99.1367785,1.77685811 C77.1906878,-4.15065085 54.0110139,5.49486403 42.7483114,25.2412002 C31.4856089,44.9875364 34.9834997,69.8491132 51.2575207,85.7211798 C52.0485919,86.4992826 53.0536413,87.4913637 53.8836176,88.2046245 L69.4002839,77.0647864 C80.3080407,69.4932837 93.3608644,65.6288113 106.632502,66.0416637 C109.251777,61.9766217 110.777233,57.3042149 111.061204,52.4767385 C111.262214,56.2635054 112.046801,65.542381 108.467528,74.9833615 C105.815494,82.2521383 100.621658,87.6664368 93.5538911,95.0454448 C86.4861241,102.424453 78.283624,110.93171 71.9615389,123.057145 C66.774187,132.958503 63.6099024,143.94272 62.3065802,156.327523 L118.37537,112.611115 C133.289006,100.939573 142.528977,83.2896086 142.950492,64.3492901 C142.950492,63.765713 142.950492,63.1756517 142.950492,62.5791063 C142.954649,58.8256774 142.651036,55.0782253 142.042663,51.3744262" id="Path" fill="#0093FF"></path>
                <path d="M61.0162264,34.1070287 L8.70178277,87.536753 L11.7817729,117.150048 L75.5732956,73.3039563 L75.5732956,40.0789675 C75.5819621,37.8109679 74.6826394,35.6338094 73.0758671,34.0331279 C71.4690947,32.4324464 69.2885364,31.5413989 67.0205862,31.5584936 C64.7491195,31.5680224 62.5800652,32.5049789 61.0162264,34.152418" id="Path" fill="url(#linearGradient-1)"></path>
                <path d="M13.765935,109.732138 C13.6541035,109.732138 13.5468046,109.687947 13.4676623,109.608935 C13.3019911,109.442062 13.3019911,109.172779 13.4676623,109.005906 L40.5456391,81.3508359 C43.5664004,78.2764282 46.2409042,74.8800259 48.5211926,71.2225313 C48.6465839,71.0349001 48.896126,70.9768822 49.0914296,71.0899527 C49.2867332,71.2030233 49.3606723,71.4483197 49.2603902,71.6504879 C46.9451578,75.3683985 44.2293542,78.8213179 41.1616371,81.9473813 L14.1095971,109.602451 C14.0275401,109.685818 13.9153313,109.732572 13.798356,109.732138" id="Path" fill="#0017B1"></path>
                <path d="M13.9085872,109.602451 L21.6247731,74.354395 L6.32856929,89.9877768 C2.22434808,94.16777 -0.0475064114,99.809352 0.014538194,105.667093 C0.0765827994,111.524833 2.46742433,117.117029 6.65926297,121.209151 L13.934524,128.529801 L13.9085872,109.602451 Z" id="Path" fill="#0000B9"></path>
                <path d="M65.6848431,44.8318787 C66.4395041,45.5637398 66.6777614,46.6787478 66.2881205,47.6551257 C65.8984796,48.6315037 64.9580127,49.2761209 63.9068189,49.2873237 C62.8556251,49.2985265 61.9016338,48.6740988 61.4912729,47.7062467 C61.0809119,46.7383945 61.295352,45.618562 62.0342442,44.8707838 C63.0344087,43.8585913 64.6633341,43.8412315 65.6848431,44.8318787" id="Path" fill="#0000B9"></path>
                <polygon id="Rectangle" fill="#0000B9" fill-rule="nonzero" transform="translate(232.046460, 119.481114) rotate(-90.000000) translate(-232.046460, -119.481114) " points="202.682806 112.144253 261.410114 112.144253 261.410114 126.817975 202.682806 126.817975"></polygon>
                <polygon id="Rectangle" fill="#0093FF" fill-rule="nonzero" transform="translate(239.950687, 30.038200) rotate(-90.000000) translate(-239.950687, -30.038200) " points="210.587034 22.7013387 269.314341 22.7013387 269.314341 37.3750604 210.587034 37.3750604"></polygon>
                <polygon id="Path" fill="#0000B9" fill-rule="nonzero" points="217.609411 103.585123 217.609411 90.3638598 177.673286 90.3638598 177.673286 148.844768 192.347008 148.844768 192.347008 126.759617 212.869468 126.759617 212.869468 113.544838 192.347008 113.544838 192.347008 103.585123"></polygon>
                <path d="M215.994848,30.1840938 C216.975557,30.6113573 217.934256,31.0874607 218.867344,31.6106156 C223.834233,34.6841216 225.941595,39.2489912 225.630354,44.9680467 C225.319113,50.6871021 222.589269,54.8629204 217.466759,57.1518394 C214.751812,58.4090593 211.818513,59.1269687 208.829818,59.2656853 C197.339834,59.5120845 177.673286,59.3888849 177.673286,59.3888849 L177.673286,0.681030024 L202.41047,0.681030024 C206.949403,0.681030024 213.329846,1.45264862 217.207391,3.98796684 C225.195913,9.21422386 228.087862,24.7373743 216.94154,29.6459061 C216.643267,29.782074 216.370931,29.9701156 215.994848,30.1840938 Z M192.347008,46.9911189 L200.776454,46.9911189 C202.655081,46.9919665 204.532173,46.8837144 206.398247,46.6669044 C209.406911,46.1546534 210.93718,44.2418174 210.93718,41.4211948 C210.93718,38.4060465 209.335585,36.3764951 206.359342,35.792918 C205.320994,35.6132798 204.268165,35.5307902 203.21451,35.5465188 C198.785808,35.5465188 192.334039,35.5465188 192.334039,35.5465188 L192.347008,46.9911189 Z M192.295134,24.7957321 C192.295134,24.7957321 199.667658,24.8994791 204.919852,24.6530799 C206.335039,24.649908 207.689521,24.0778667 208.67856,23.0656572 C209.667598,22.0534478 210.208125,20.6860836 210.17853,19.2712023 C210.282277,16.0744967 208.499124,13.8374512 205.127346,13.3576212 C204.396314,13.2127847 203.654625,13.1282062 202.909753,13.1047378 L192.243261,13.1047378 L192.295134,24.7957321 Z" id="Shape" fill="#0093FF" fill-rule="nonzero"></path>
                <path d="M312.071089,148.851252 L298.006881,148.851252 L298.006881,107.462668 L312.148899,107.462668 L312.148899,112.559242 C315.46232,107.611805 320.059611,105.575769 325.765698,105.951852 C331.601469,106.334419 335.556824,109.44683 337.67067,115.120497 C337.868302,114.877959 338.04611,114.619921 338.202374,114.348878 C340.744176,108.467718 345.711066,105.523896 352.467592,105.919431 C358.303362,106.269577 362.758001,109.809945 364.456859,115.7754 C365.013127,117.746988 365.307443,119.783224 365.332224,121.831633 C365.429487,130.423185 365.384098,139.014736 365.377614,147.612772 C365.377614,147.982371 365.299803,148.358454 365.24793,148.8318 L351.099428,148.8318 L351.099428,147.107005 C351.099428,140.5061 351.099428,133.911679 351.099428,127.317258 C351.098827,125.989227 350.983848,124.663716 350.755765,123.355418 C350.373198,121.222119 349.420022,119.419514 347.066261,118.926716 C344.43368,118.37556 342.092888,118.926716 340.329188,121.111888 C339.03235,122.752388 338.714625,124.704129 338.721109,126.746649 C338.721109,133.399428 338.721109,140.052207 338.721109,146.704985 L338.721109,148.799379 L324.455891,148.799379 L324.455891,147.016226 C324.455891,140.421805 324.455891,133.827384 324.455891,127.226479 C324.454006,125.955496 324.34774,124.686815 324.138166,123.433228 C323.762083,121.222119 322.789455,119.393578 320.351399,118.894295 C317.62804,118.356107 315.073269,118.894295 313.627294,121.358287 C312.715881,122.983642 312.212984,124.806088 312.161868,126.668839 C311.993279,133.315133 312.090541,139.974396 312.090541,146.627175 L312.071089,148.851252 Z" id="Path" fill="#0000B9" fill-rule="nonzero"></path>
                <path d="M274.209904,143.813037 C268.853964,149.998954 261.241525,151.872885 253.719864,148.890157 C249.025311,147.022711 246.528898,143.456406 246.295467,138.424675 C246.062036,133.392944 247.974872,129.37923 252.5981,127.297805 C255.366849,126.046356 258.518165,125.566526 261.539797,124.976465 C264.094568,124.477183 266.727149,124.328046 269.320825,123.997352 C271.544902,123.705564 272.653699,122.745904 272.809319,121.079467 C272.927932,119.177133 271.692291,117.453739 269.852529,116.955522 C265.086649,115.360412 261.209104,117.539099 259.860392,122.791293 L246.969823,120.029028 C247.237001,116.199218 249.17421,112.680468 252.267406,110.406491 C255.710511,107.72852 259.750161,106.580819 264.00379,106.126925 C269.431056,105.556317 274.780513,105.822168 279.786308,108.299129 C284.623513,110.691795 287.042116,114.718477 287.191252,120.029028 C287.32742,124.846781 287.230158,129.671019 287.236642,134.495256 C287.236642,138.567327 287.236642,138.567327 291.256839,139.001768 C291.256839,142.010432 291.256839,145.051517 291.256839,148.079634 C291.167972,148.487732 290.887993,148.82805 290.504673,148.993904 C286.802201,150.2259 283.041371,150.777057 279.254604,149.415377 C276.670813,148.61761 274.733394,146.466029 274.209904,143.813037 Z M272.718541,131.609791 C269.891434,131.946969 267.142137,132.25821 264.412293,132.621325 C263.814228,132.73556 263.241204,132.955109 262.71992,133.269744 C261.498866,133.902254 260.817775,135.24356 261.027546,136.602618 C261.078168,137.875909 261.995179,138.948437 263.245139,139.196293 C264.419011,139.48664 265.631064,139.591656 266.83738,139.507535 C271.013199,139.105515 273.561485,135.727252 272.718541,131.609791 Z" id="Shape" fill="#0000B9" fill-rule="nonzero"></path>
                <path d="M537.708157,127.991613 C537.759801,140.5061 529.012628,149.577481 516.310101,150.115669 C508.853282,150.433394 501.960588,148.870705 496.740816,143.177586 C490.814266,136.693396 489.78328,128.964242 492.201883,120.800647 C494.484318,113.123366 499.95049,108.597402 507.640739,106.697534 C513.167774,105.251159 519.011036,105.593946 524.331043,107.676647 C532.948532,111.074362 537.669022,118.395012 537.708157,127.991613 Z M505.611187,127.388584 C505.611187,132.647262 508.114085,136.323797 512.043504,137.283457 C516.472205,138.372801 520.59615,136.485902 522.295008,132.588904 C524.311591,127.998098 523.079595,122.395758 519.43548,120.01606 C516.710279,118.139164 513.162088,117.95123 510.253867,119.529746 C506.843183,121.228603 505.734387,124.341015 505.611187,127.388584 Z" id="Shape" fill="#0000B9" fill-rule="nonzero"></path>
                <path d="M412.420411,148.838284 L398.356203,148.838284 L398.356203,107.475637 L412.491737,107.475637 L412.491737,112.526821 C414.40539,109.728766 417.205858,107.656968 420.441354,106.64566 C430.096312,103.533249 439.135273,109.330115 439.725334,119.438967 C440.153291,126.733681 439.91986,134.067299 439.978218,141.381465 C439.978218,143.813037 439.978218,146.244608 439.978218,148.805863 L425.713,148.805863 L425.713,146.977321 C425.713,140.553651 425.713,134.123496 425.713,127.686857 C425.726186,126.634213 425.674213,125.581763 425.55738,124.53554 C425.071065,120.645026 423.352755,118.920232 419.942071,118.73219 C416.408188,118.53118 413.574597,120.49589 412.731652,123.8547 C412.495461,124.9362 412.388802,126.041963 412.413927,127.148669 C412.413927,133.74309 412.413927,140.343995 412.413927,146.938416 L412.420411,148.838284 Z" id="Path" fill="#0000B9" fill-rule="nonzero"></path>
                <path d="M317.835534,42.3678865 C317.770692,45.7331811 320.105,48.2036574 323.736146,48.9169183 C328.236174,49.7728313 331.303196,48.7548135 334.837079,45.1366356 L344.563364,51.4262997 C343.038605,54.2685591 340.637104,56.5427076 337.71606,57.9104896 C329.416297,61.8723296 321.077629,61.8010035 313.173401,57.0934817 C306.17696,52.9306318 303.544379,46.1287166 303.570126,38.2893311 C303.570126,30.8584496 306.125087,24.4715226 312.492561,20.0882102 C321.336996,13.999556 337.443724,14.8100797 344.051113,25.9628862 C346.884704,30.73525 347.23485,35.9031493 346.566979,41.2461217 C346.411358,42.4716336 345.59435,42.3678865 344.744921,42.3678865 L317.835534,42.3678865 L317.835534,42.3678865 Z M332.204498,33.776335 C331.705216,29.3411491 328.281563,27.0587143 323.599978,27.6487756 C320.422725,28.0443112 317.290862,31.4160899 318.179196,33.776335 L332.204498,33.776335 Z" id="Shape" fill="#0093FF" fill-rule="nonzero"></path>
                <path d="M297.358462,59.3175588 L283.28777,59.3175588 L283.28777,54.2534065 C283.28777,54.2534065 282.749582,54.3895745 282.704193,54.4803532 C280.227233,59.2267801 273.464223,62.0084976 266.662307,60.5365865 C261.034031,59.3175588 257.169453,54.9731516 256.11253,48.6251297 C255.910471,47.3664429 255.808566,46.0937121 255.807774,44.8189103 C255.807774,36.33759 255.807774,17.9484276 255.807774,17.9484276 L270.072991,17.9484276 C270.072991,17.9484276 270.072991,32.7583172 270.072991,39.242507 C270.048668,40.4611579 270.122393,41.6797913 270.293454,42.8866217 C270.805705,46.0833273 272.342458,47.6654696 275.098238,48.0026475 C278.418144,48.4046673 281.361966,47.0689242 282.431857,44.3390802 C283.015729,42.7901249 283.322993,41.1506524 283.339644,39.4953904 C283.436906,33.0112006 283.378549,17.9484276 283.378549,17.9484276 L297.37143,17.9484276 L297.358462,59.3175588 Z" id="Path" fill="#0093FF" fill-rule="nonzero"></path>
                <path d="M580.056171,118.181034 L567.210991,120.956267 C566.932171,120.080902 566.750613,119.328736 566.452341,118.621959 C565.233313,115.73001 561.226084,114.459109 558.528661,116.080157 C556.628793,117.21489 556.45372,119.69185 558.366556,120.878457 C559.582211,121.532118 560.896274,121.98328 562.25707,122.2142 C565.071208,122.862619 567.943704,123.206281 570.73839,123.906574 C576.574161,125.365517 579.751414,128.795653 580.419286,133.989489 C581.17397,139.379261 578.462379,144.662321 573.643307,147.1913 C568.455955,150.076764 562.89252,150.556594 557.160497,149.953564 C552.842026,149.506155 548.73105,148.35197 545.359271,145.460021 C543.055628,143.5541 541.543922,140.858918 541.118611,137.899456 L554.028633,135.085317 L554.592757,136.524807 C555.941469,139.961428 560.888906,141.770517 564.143969,140.013301 C566.283752,138.859116 566.536635,136.174661 564.474663,134.864855 C563.310089,134.239195 562.053952,133.801517 560.752738,133.568017 C557.367991,132.725072 553.866528,132.271179 550.585528,131.116993 C545.994722,129.521882 543.057384,126.273303 542.694269,121.196182 C542.311702,115.879147 544.399611,111.599582 549.016354,109.070747 C557.192918,104.590172 565.628849,104.64853 573.870254,108.979969 C577.378201,110.814995 579.453141,113.907953 580.056171,118.181034 Z" id="Path" fill="#0000B9" fill-rule="nonzero"></path>
                <polygon id="Path" fill="#0000B9" fill-rule="nonzero" points="374.345248 107.423763 388.331646 107.423763 388.331646 148.799379 374.345248 148.799379"></polygon>
                <circle id="Oval" fill="#0000B9" fill-rule="nonzero" cx="381.341689" cy="94.1052373" r="7.67079659"></circle>
                <path d="M473.579289,141.731612 C471.443892,141.604293 469.303211,141.591306 467.166426,141.692707 C467.814845,140.395869 468.385453,139.300041 468.897704,138.158823 C469.116037,137.576024 469.675974,137.192364 470.298289,137.199163 C473.470659,136.919633 476.556113,136.013832 479.376155,134.534161 C488.97924,129.444072 488.940335,116.268198 482.01522,110.65289 L480.640572,109.544093 C482.585829,106.36684 486.255881,100.271702 486.891331,99.2277473 L474.396297,99.2277473 C474.21474,100.180923 473.365311,104.57072 472.956807,106.522461 C471.355212,106.353872 469.831428,106.126925 468.301159,106.049115 C463.431532,105.796232 458.6462,106.230672 454.185078,108.370455 C448.660548,111.00952 445.72321,115.418769 445.651884,121.57875 C445.580558,127.73873 448.414149,132.128527 453.893289,134.845402 C454.982633,135.390074 456.136819,135.798578 457.336394,136.304345 C455.754252,139.54644 454.185078,142.74963 452.583483,146.03063 C454.697329,147.924013 456.80469,149.778491 458.873147,151.671875 C459.209629,152.075573 459.800315,152.151881 460.228343,151.846948 C463.064614,150.309868 466.413483,150.025508 469.468313,151.062361 C471.25892,151.562624 472.531646,153.148315 472.632598,155.004748 C472.880441,156.942483 471.873103,158.824408 470.123216,159.692818 C468.467071,160.557476 466.593216,160.916011 464.734855,160.723804 C460.779499,160.438499 457.394752,159.212988 455.942293,155.030685 C455.942293,154.985296 455.84503,154.965843 455.728315,154.888033 L443.816858,159.524229 C443.946542,159.900312 444.024352,160.172648 444.141068,160.464436 C446.196556,165.398905 450.080585,168.303822 454.93076,170.106426 C459.347192,171.661392 464.046604,172.247436 468.709663,171.824737 C472.521947,171.63479 476.243683,170.595805 479.603102,168.783652 C488.49941,163.810278 488.739325,154.252582 485.21841,148.565948 C482.559892,144.273414 478.435948,142.282768 473.579289,141.74458 M465.927945,127.479362 C464.570488,127.182087 463.240764,126.769937 461.953137,126.247366 C459.956007,125.274738 459.359461,123.413775 459.463208,121.280477 C459.469082,119.365937 460.640117,117.647905 462.419999,116.942554 C464.802251,115.906626 467.500887,115.871578 469.909238,116.845291 C471.916664,117.7141 473.18834,119.722421 473.115326,121.908572 C473.042311,124.094723 471.639467,126.013718 469.578544,126.746649 C468.374936,127.052836 467.156485,127.297392 465.927945,127.479362" id="Shape" fill="#0000B9"></path>
                <circle id="Oval" fill="#FF6F8C" fill-rule="nonzero" cx="594.178736" cy="143.242428" r="7.67079659"></circle>
            </g>
        </g>
    </g>
</svg>